<?xml version="1.0" encoding="UTF-8" standalone="no"?>
<!DOCTYPE svg PUBLIC "-//W3C//DTD SVG 1.1//EN" "http://www.w3.org/Graphics/SVG/1.1/DTD/svg11.dtd">
<svg width="100%" height="100%" viewBox="0 0 1080 136" version="1.1" xmlns="http://www.w3.org/2000/svg" xmlns:xlink="http://www.w3.org/1999/xlink" xml:space="preserve" xmlns:serif="http://www.serif.com/" style="fill-rule:evenodd;clip-rule:evenodd;stroke-linejoin:round;stroke-miterlimit:2;">
    <g transform="matrix(0.807034,0,0,0.807034,-121.412,-143.465)">
        <g transform="matrix(209.985,0,0,209.985,153.802,345.546)">
            <path d="M0.902,-0.001L0.533,-0.001L0.265,-0.255L-0.016,-0.257L-0.016,-0.796L0.902,-0.796L0.902,-0.353L0.594,-0.353L0.594,-0.503L0.292,-0.503L0.292,-0.292L0.902,-0.292L0.902,-0.001Z" style="fill:white;fill-rule:nonzero;"/>
        </g>
        <g transform="matrix(209.985,0,0,209.985,370.926,345.546)">
            <path d="M0.902,-0.797L0.902,0.001L-0.015,0.001L-0.015,-0.797L0.293,-0.797L0.293,-0.294L0.594,-0.294L0.594,-0.797L0.902,-0.797Z" style="fill:white;fill-rule:nonzero;"/>
        </g>
        <g transform="matrix(209.985,0,0,209.985,587.631,345.546)">
            <path d="M0.762,-0.797L0.278,0.001L-0.037,0.001L0.448,-0.797L0.762,-0.797Z" style="fill:white;fill-rule:nonzero;"/>
        </g>
        <g transform="matrix(209.985,0,0,209.985,771.158,345.546)">
            <path d="M0.762,-0.797L0.278,0.001L-0.037,0.001L0.448,-0.797L0.762,-0.797Z" style="fill:white;fill-rule:nonzero;"/>
        </g>
        <g transform="matrix(209.985,0,0,209.985,954.685,345.546)">
            <path d="M1.508,-0L1.2,0.001L1.2,-0.504L0.902,-0.504L0.902,-0L0.594,0.001L0.59,-0.504L0.296,-0.504L0.296,-0L-0.015,0.001L-0.015,-0.797L0.354,-0.799L0.591,-0.573L0.591,-0.797L0.96,-0.797L1.228,-0.543L1.508,-0.544L1.508,-0Z" style="fill:white;fill-rule:nonzero;"/>
        </g>
        <g transform="matrix(209.985,0,0,209.985,1299.27,345.546)">
            <path d="M0.902,-0.003L0.601,-0.003L0.601,-0.506L0.293,-0.506L0.293,-0.296L0.549,-0.296L0.549,-0.003L-0.015,-0.003L-0.015,-0.546L0.268,-0.546L0.527,-0.799L0.902,-0.799L0.902,-0.003Z" style="fill:white;fill-rule:nonzero;"/>
        </g>
    </g>
</svg>
